<?xml version="1.0" encoding="UTF-8" standalone="no"?>
<!-- Created with Inkscape (http://www.inkscape.org/) -->

<svg
   xmlns:dc="http://purl.org/dc/elements/1.1/"
   xmlns:cc="http://creativecommons.org/ns#"
   xmlns:rdf="http://www.w3.org/1999/02/22-rdf-syntax-ns#"
   xmlns:svg="http://www.w3.org/2000/svg"
   xmlns="http://www.w3.org/2000/svg"
   xmlns:sodipodi="http://sodipodi.sourceforge.net/DTD/sodipodi-0.dtd"
   xmlns:inkscape="http://www.inkscape.org/namespaces/inkscape"
   width="165mm"
   height="165mm"
   viewBox="0 0 165 165"
   version="1.1"
   id="svg8"
   inkscape:version="0.92.5 (2060ec1f9f, 2020-04-08)"
   sodipodi:docname="delete.svg">
  <defs
     id="defs2" />
  <sodipodi:namedview
     id="base"
     pagecolor="#ffffff"
     bordercolor="#666666"
     borderopacity="1.0"
     inkscape:pageopacity="0.0"
     inkscape:pageshadow="2"
     inkscape:zoom="0.35"
     inkscape:cx="400"
     inkscape:cy="560"
     inkscape:document-units="mm"
     inkscape:current-layer="layer1"
     showgrid="false"
     inkscape:window-width="1366"
     inkscape:window-height="705"
     inkscape:window-x="-8"
     inkscape:window-y="-8"
     inkscape:window-maximized="1" />
  <metadata
     id="metadata5">
    <rdf:RDF>
      <cc:Work
         rdf:about="">
        <dc:format>image/svg+xml</dc:format>
        <dc:type
           rdf:resource="http://purl.org/dc/dcmitype/StillImage" />
        <dc:title></dc:title>
      </cc:Work>
    </rdf:RDF>
  </metadata>
  <g
     inkscape:label="Capa 1"
     inkscape:groupmode="layer"
     id="layer1"
     transform="translate(0,-132)">
    <g
       id="g21"
       transform="translate(-3.023805,2.2678572)">
      <path
         style="fill:#d0d0d0;fill-opacity:1;stroke-width:0.26458335"
         d="M 76.332293,296.39618 C 67.337301,295.44318 57.65168,292.76896 49.700871,289.04319 32.061801,280.77747 17.73443,266.4501 9.4687159,248.81103 6.3481396,242.15171 4.1586716,234.9626 2.7278763,226.67753 2.0275999,222.62255 1.997254,222.07633 2.0076075,213.71294 c 0.010695,-8.63917 0.019705,-8.78055 0.8544011,-13.40671 1.4979936,-8.30238 3.5016236,-14.80053 6.6067073,-21.42679 7.9832111,-17.03621 21.5670921,-30.95989 38.2885761,-39.24637 2.473855,-1.22594 5.331355,-2.53611 6.35,-2.9115 6.492172,-2.39247 10.60122,-3.52385 16.968511,-4.67209 4.687927,-0.84539 4.800089,-0.85258 13.458573,-0.86301 8.34225,-0.0101 8.919856,0.0218 12.964584,0.71575 8.19559,1.40601 15.47197,3.62345 22.1335,6.74506 17.59526,8.24519 31.98698,22.6369 40.23216,40.23216 3.10268,6.62114 5.10987,13.13083 6.60671,21.42679 0.83475,4.62649 0.8437,4.76691 0.8541,13.40671 0.0101,8.34225 -0.0219,8.91986 -0.71574,12.96459 -2.74596,16.00601 -8.91457,29.36071 -18.93188,40.98642 -13.05651,15.15291 -29.54713,24.47708 -49.475154,27.97439 -4.367921,0.76655 -5.163902,0.82528 -12.213071,0.90105 -4.147344,0.0446 -8.493125,-0.0199 -9.657292,-0.14321 z m 21.503045,-54.96247 13.168672,13.16669 7.20891,-7.20891 7.20892,-7.20891 -13.1667,-13.16868 -13.166696,-13.16867 13.161846,-13.16381 13.16184,-13.16382 -7.20892,-7.20891 -7.20891,-7.20891 -13.163817,13.16184 -13.163815,13.16184 -13.163815,-13.16184 -13.163817,-13.16184 -7.208912,7.20891 -7.208914,7.20891 13.161841,13.16382 13.161841,13.16381 -13.160582,13.16303 -13.160584,13.16302 7.203969,7.21339 7.203969,7.21339 13.167501,-13.16552 13.167503,-13.16553 z"
         id="path37"
         inkscape:connector-curvature="0" />
      <path
         style="fill:#b9b9b9;fill-opacity:1;stroke-width:0.26458335"
         d="m 78.052085,296.50648 c -7.797928,-0.84734 -13.268373,-1.97176 -19.446876,-3.9972 -15.800073,-5.17959 -29.917173,-15.31141 -40.114512,-28.79013 -1.812939,-2.39632 -4.996947,-7.11972 -4.996947,-7.41285 0,-0.0651 -0.475611,-0.89547 -1.056913,-1.8452 -2.002608,-3.27188 -4.9720981,-9.99204 -6.4559317,-14.61023 -1.7782048,-5.53436 -2.5029485,-8.75365 -3.6506464,-16.21605 -0.4725359,-3.07246 -0.471405,-16.83024 0.00162,-19.71146 0.1911275,-1.16417 0.5245212,-3.18823 0.7408748,-4.49792 1.3941323,-8.43932 5.463394,-19.8231 9.3640833,-26.19607 0.581302,-0.94973 1.056913,-1.78533 1.056913,-1.85688 0,-0.0715 0.678683,-1.17077 1.508185,-2.44273 5.136903,-7.87693 12.034081,-15.31985 19.432562,-20.97017 2.768034,-2.11399 7.425069,-5.28727 7.759468,-5.28727 0.07153,0 0.907105,-0.47561 1.85684,-1.05692 2.144154,-1.31236 6.440877,-3.378 9.945513,-4.78127 4.526087,-1.81226 11.690049,-3.83312 16.250558,-4.58407 1.309688,-0.21566 3.33375,-0.54849 4.497917,-0.73961 2.88122,-0.47303 16.639003,-0.47416 19.711459,-0.002 7.517958,1.15624 10.753678,1.88311 16.180778,3.63481 4.75804,1.53576 11.96087,4.77483 15.36553,6.9098 0.54281,0.34038 1.05507,0.61888 1.13835,0.61888 0.29626,0 4.79574,3.04356 7.39967,5.00532 6.08714,4.58595 11.65407,10.15002 16.30206,16.29368 1.81294,2.39632 4.99695,7.11972 4.99695,7.41285 0,0.0651 0.47561,0.89547 1.05691,1.8452 0.99408,1.62414 2.05929,3.75545 3.91626,7.83585 1.99358,4.38059 4.58481,13.11149 5.44909,18.36022 0.21566,1.30969 0.54848,3.33375 0.73961,4.49792 0.47747,2.90829 0.47332,16.61501 -0.006,19.84375 -1.23222,8.30028 -3.01548,15.23062 -5.34515,20.77309 -0.45798,1.08959 -1.04867,2.51686 -1.31263,3.1717 -0.60022,1.48901 -3.34282,6.77184 -4.00463,7.71376 -0.2714,0.38627 -0.49345,0.76908 -0.49345,0.85068 0,0.31857 -3.09714,4.93167 -4.99695,7.44281 -4.61813,6.10419 -9.99554,11.48862 -16.16972,16.19084 -2.34611,1.78678 -7.2304,5.10816 -7.51187,5.10816 -0.0468,0 -1.08446,0.5729 -2.30589,1.27311 -2.90012,1.66255 -6.19791,3.2143 -10.69587,5.03284 -2.07878,0.84046 -6.04107,2.05642 -9.51658,2.92049 -2.89849,0.72061 -4.09977,0.95282 -9.789583,1.89237 -1.768608,0.29205 -14.863528,0.58006 -16.801042,0.36952 z m -6.493479,-55.12383 13.100831,-13.07613 13.104995,13.07613 c 7.207748,7.19187 13.159628,13.12287 13.226398,13.17999 0.11936,0.10211 14.42167,-14.11684 14.42167,-14.33761 0,-0.0622 -5.91268,-6.02569 -13.13929,-13.25221 L 99.133921,213.83369 112.20707,200.73886 c 7.19023,-7.20216 13.0397,-13.22326 12.99882,-13.38021 -0.0409,-0.15695 -3.23283,-3.44364 -7.09324,-7.30374 l -7.01892,-7.01837 -0.67055,0.62674 c -0.3688,0.34471 -6.31225,6.27316 -13.207668,13.17433 L 84.678384,199.3852 71.570335,186.30845 c -7.209427,-7.19222 -13.160005,-13.12118 -13.223502,-13.17548 -0.151268,-0.12934 -14.128475,13.86862 -14.221992,14.24311 -0.03944,0.15796 5.813364,6.17492 13.00624,13.37103 l 13.077952,13.08385 -13.077952,13.10559 c -7.192876,7.20807 -13.044144,13.23607 -13.002822,13.39556 0.09482,0.36594 14.076861,14.34522 14.222257,14.21945 0.05899,-0.051 6.002631,-5.97704 13.20809,-13.16891 z"
         id="path35"
         inkscape:connector-curvature="0" />
      <path
         style="fill:#a3a3a3;fill-opacity:1;stroke-width:0.26458335"
         d="m 78.44896,296.51209 c -0.436563,-0.0567 -1.924844,-0.23681 -3.307292,-0.40025 C 61.564973,294.50671 49.47017,290.0157 38.232292,282.40676 33.789589,279.39869 30.651138,276.81926 26.631631,272.8724 14.184601,260.65033 5.8435686,244.76683 3.0676559,228.00044 c -1.0138007,-6.1233 -1.0832811,-7.0312 -1.0832811,-14.15521 0,-7.31287 0.1145761,-8.72345 1.2035071,-14.81666 3.002144,-16.79878 11.1171561,-32.10135 23.4449941,-44.2105 12.065686,-11.85165 26.83359,-19.52369 43.217125,-22.45162 6.093214,-1.08893 7.50379,-1.20351 14.816667,-1.20351 7.124002,0 8.031901,0.0695 14.155209,1.08328 21.775263,3.60521 41.892803,16.6165 54.450673,35.21673 6.6551,9.85728 11.12511,20.94433 12.99313,32.22708 1.0138,6.1233 1.08328,7.0312 1.08328,14.1552 0,7.12401 -0.0695,8.03191 -1.08328,14.15521 -3.60626,21.78165 -16.61105,41.88913 -35.21673,54.45067 -9.92723,6.70233 -21.09339,11.18927 -32.359365,13.0031 -1.527969,0.24601 -3.4925,0.56838 -4.365625,0.71638 -1.5694,0.26603 -14.340692,0.54076 -15.875,0.3415 z m -6.814014,-54.95075 13.031722,-13.02972 13.031722,13.02972 c 7.16745,7.16635 13.15034,13.02779 13.29531,13.02542 0.333,-0.005 14.4188,-14.10785 14.4188,-14.43579 0,-0.13326 -5.86338,-6.10657 -13.02972,-13.27401 L 99.353049,213.84523 112.38278,200.81351 c 7.16634,-7.16744 13.02972,-13.13956 13.02972,-13.27137 0,-0.30551 -14.14858,-14.44274 -14.45434,-14.44274 -0.12542,0 -6.09232,5.86338 -13.25977,13.02973 L 84.666668,199.15885 71.634946,186.12913 C 64.4675,178.96278 58.494232,173.0994 58.361017,173.0994 c -0.308676,0 -14.440183,14.14311 -14.440183,14.45204 0,0.12669 5.863378,6.09463 13.029727,13.26207 l 13.029726,13.03172 -13.029726,13.03173 c -7.166349,7.16744 -13.029727,13.13899 -13.029727,13.27011 0,0.32194 14.085099,14.42231 14.4188,14.43443 0.144976,0.005 6.127866,-5.85381 13.295312,-13.02016 z"
         id="path33"
         inkscape:connector-curvature="0" />
      <path
         style="fill:#8c8c8c;fill-opacity:1;stroke-width:0.26458335"
         d="m 78.713543,296.50485 c -0.436563,-0.0602 -1.924844,-0.23727 -3.307292,-0.39358 C 65.793767,295.02442 57.494679,292.62805 48.683334,288.395 43.980326,286.13563 42.006613,284.9622 35.89395,280.79135 30.655607,277.21708 22.457067,269.04215 17.976438,262.92544 10.357018,252.52384 4.9475275,239.8076 3.0630545,227.86815 2.8448547,226.4857 2.5168992,224.40211 2.3342644,223.23794 1.8790988,220.33659 1.8778441,207.86778 2.3323875,204.58482 3.2603642,197.88245 4.1207921,193.88197 5.6898901,188.9744 9.9079385,175.78188 16.369921,165.18883 26.190092,155.36866 37.302964,144.25579 50.255435,136.96427 65.352084,133.32265 72.09393,131.69638 76.850641,131.165 84.666668,131.165 c 6.561961,0 8.361434,0.13917 14.155209,1.09476 10.937713,1.80399 22.381933,6.39099 31.840733,12.76217 1.21406,0.81777 2.47193,1.66544 2.79526,1.88372 5.19375,3.50633 14.41571,12.74948 18.21439,18.25625 3.72761,5.40373 5.33426,8.10914 7.54232,12.70033 4.20189,8.73696 6.25368,15.78322 7.78132,26.72259 0.21673,1.55198 0.351,5.09456 0.351,9.26041 0,6.54721 -0.13199,8.26347 -1.08866,14.15521 -1.13738,7.00468 -3.75838,15.11769 -7.09456,21.96042 -2.20344,4.51942 -3.74768,7.11103 -7.4886,12.56771 -3.67175,5.35577 -13.09196,14.79617 -18.21721,18.25625 -0.32333,0.21828 -1.64073,1.10965 -2.92756,1.98082 -7.72543,5.23007 -16.97039,9.27252 -26.54906,11.60887 -2.5951,0.63297 -4.961177,1.05997 -9.789582,1.76668 -1.978551,0.28959 -13.970937,0.57135 -15.478125,0.36366 z m -7.078597,-54.94351 13.031722,-13.02972 13.031722,13.02972 c 7.16745,7.16635 13.15116,13.02973 13.29715,13.02973 0.34445,0 14.41696,-14.07607 14.41696,-14.42061 0,-0.14398 -5.86338,-6.12606 -13.02972,-13.2935 L 99.353049,213.84523 112.38278,200.81351 c 7.16634,-7.16744 13.02972,-13.14952 13.02972,-13.2935 0,-0.34454 -14.07251,-14.42061 -14.41696,-14.42061 -0.14599,0 -6.1297,5.86338 -13.29715,13.02973 L 84.666668,199.15885 71.634946,186.12913 C 64.4675,178.96278 58.483781,173.0994 58.337795,173.0994 c -0.344448,0 -14.416961,14.07607 -14.416961,14.42061 0,0.14398 5.863378,6.12606 13.029727,13.2935 l 13.029726,13.03172 -13.029726,13.03173 c -7.166349,7.16744 -13.029727,13.14952 -13.029727,13.2935 0,0.34454 14.072513,14.42061 14.416961,14.42061 0.145986,0 6.129705,-5.86338 13.297151,-13.02973 z"
         id="path31"
         inkscape:connector-curvature="0" />
      <path
         style="fill:#767676;fill-opacity:1;stroke-width:0.26458335"
         d="M 76.86146,296.2567 C 62.305357,294.70176 49.905952,290.23214 38.232292,282.33204 23.620896,272.44384 12.322662,257.76604 6.4883039,241.09269 2.7048481,230.28038 1.0979566,217.16732 2.2390304,206.41644 3.5459835,194.1027 6.5483964,184.19317 11.97277,174.29003 c 9.884995,-18.04679 26.152279,-31.87172 45.446444,-38.62316 10.806851,-3.78154 23.787572,-5.37406 34.655788,-4.25168 14.875658,1.53623 27.198328,5.93888 39.026038,13.94324 14.6114,9.8882 25.90963,24.566 31.74399,41.23935 3.64978,10.43028 5.33623,23.47842 4.36213,33.74994 -1.435,15.13154 -5.94782,27.95418 -14.05369,39.93189 -9.8882,14.6114 -24.566,25.90963 -41.23935,31.74399 -10.85766,3.79932 -24.120124,5.40095 -35.05266,4.2331 z m -5.226514,-54.69536 13.031722,-13.02972 13.031722,13.02972 c 7.16745,7.16635 13.15116,13.02973 13.29715,13.02973 0.34445,0 14.41696,-14.07607 14.41696,-14.42061 0,-0.14398 -5.86338,-6.12606 -13.02972,-13.2935 L 99.353049,213.84523 112.38278,200.81351 c 7.16634,-7.16744 13.02972,-13.14952 13.02972,-13.2935 0,-0.34454 -14.07251,-14.42061 -14.41696,-14.42061 -0.14599,0 -6.1297,5.86338 -13.29715,13.02973 L 84.666668,199.15885 71.634946,186.12913 C 64.4675,178.96278 58.483781,173.0994 58.337795,173.0994 c -0.344448,0 -14.416961,14.07607 -14.416961,14.42061 0,0.14398 5.863378,6.12606 13.029727,13.2935 l 13.029726,13.03172 -13.029726,13.03173 c -7.166349,7.16744 -13.029727,13.14952 -13.029727,13.2935 0,0.34454 14.072513,14.42061 14.416961,14.42061 0.145986,0 6.129705,-5.86338 13.297151,-13.02973 z"
         id="path29"
         inkscape:connector-curvature="0" />
      <path
         style="fill:#606060;fill-opacity:1;stroke-width:0.26458335"
         d="M 77.126043,296.24859 C 66.824096,295.14346 59.416149,293.17663 50.535417,289.1887 27.346614,278.77568 10.268259,258.11461 4.2221873,233.15982 2.8188392,227.36759 1.8502925,219.42658 1.8549157,213.75083 c 0.00442,-5.43026 0.9553203,-13.35956 2.258865,-18.83611 2.5317482,-10.63659 6.8845643,-20.2054 13.3487193,-29.34454 4.633448,-6.55086 12.378256,-14.29567 18.929112,-18.92911 12.717132,-8.99488 25.848575,-13.78483 42.037155,-15.33386 10.894716,-1.04248 24.820223,1.00478 35.910843,5.27945 27.68166,10.66936 47.76122,35.59828 52.07169,64.64736 1.43421,9.6654 1.40165,16.38521 -0.12648,26.10497 -4.4855,28.53022 -24.60423,53.22676 -51.94521,63.76482 -11.51607,4.43865 -25.619779,6.38849 -37.213567,5.14478 z m 20.704435,-54.55516 13.163812,13.16184 7.3412,-7.34121 7.34121,-7.3412 -13.16183,-13.16381 -13.161832,-13.1638 13.029732,-13.03173 c 7.16635,-7.16745 13.02973,-13.14955 13.02973,-13.29355 0,-0.144 -3.24382,-3.50725 -7.2085,-7.47389 l -7.2085,-7.21209 -13.164416,13.16245 -13.164416,13.16244 -13.163809,-13.16184 -13.163813,-13.16184 -7.341203,7.34121 -7.341206,7.3412 13.161836,13.16382 13.161835,13.1638 -13.161835,13.16381 -13.161836,13.16382 7.341206,7.3412 7.341203,7.34121 13.163813,-13.16184 13.163809,-13.16184 z"
         id="path27"
         inkscape:connector-curvature="0" />
      <path
         style="fill:#494949;fill-opacity:1;stroke-width:0.26458335"
         d="m 78.769645,296.39075 c -8.973103,-0.8055 -17.23907,-2.71948 -24.734444,-5.72724 -3.660767,-1.46901 -8.899935,-3.98685 -10.153994,-4.87982 -0.386934,-0.27553 -0.763963,-0.50095 -0.837837,-0.50095 -0.07388,0 -1.30565,-0.74457 -2.737282,-1.6546 C 20.15162,270.81679 6.343339,249.62055 2.9220003,226.24212 1.6321434,217.42838 1.5946359,211.33303 2.776911,202.66365 5.565973,182.21202 15.359143,164.34042 31.220834,150.7562 c 1.382448,-1.18395 2.769687,-2.32631 3.082753,-2.53857 0.313068,-0.21227 1.741818,-1.2224 3.175,-2.24475 4.896755,-3.49305 10.746441,-6.65666 16.628705,-8.99309 6.098035,-2.42213 12.601388,-4.10947 19.381474,-5.02867 8.757618,-1.1873 14.70261,-1.14814 23.613319,0.15554 21.088835,3.08541 40.591085,14.70179 53.496105,31.86462 9.98611,13.28086 15.16597,27.20056 16.64155,44.72038 0.73833,8.76636 -0.78002,20.8697 -3.81633,30.42128 -5.81128,18.28107 -18.32633,34.43051 -34.57132,44.61091 -3.93063,2.46324 -4.29244,2.66871 -7.54063,4.28222 -7.88431,3.91647 -16.29867,6.47013 -25.532292,7.74877 -5.445347,0.75405 -12.680349,1.02453 -17.009523,0.63591 z m -7.207075,-54.75193 13.111951,-13.08453 13.100161,13.08453 c 7.205088,7.1965 13.132038,13.10974 13.171008,13.14055 0.039,0.0308 3.37256,-3.2473 7.40801,-7.28468 l 7.33717,-7.34068 -13.16567,-13.15124 -13.165658,-13.15123 13.092628,-13.10941 c 7.20094,-7.21017 13.12194,-13.14442 13.15777,-13.18722 0.12078,-0.14427 -14.47493,-14.58841 -14.67938,-14.52693 -0.11134,0.0335 -6.06854,5.92087 -13.238235,13.08311 L 84.656524,199.13333 71.55469,186.05022 c -7.206009,-7.19571 -13.133917,-13.10979 -13.173128,-13.14239 -0.139348,-0.11586 -14.527739,14.41567 -14.499542,14.64378 0.0158,0.1277 5.887016,6.09316 13.047189,13.2566 l 13.018492,13.02443 -13.050782,13.06587 c -7.177932,7.18622 -13.050012,13.15821 -13.04907,13.27107 0.0019,0.22046 14.414005,14.71344 14.532078,14.61357 0.03888,-0.0329 5.971072,-5.94783 13.182643,-13.14433 z"
         id="path25"
         inkscape:connector-curvature="0" />
      <path
         style="fill:#333333;fill-opacity:1;stroke-width:0.26458335"
         d="m 80.697918,296.4902 c -2.580793,-0.15692 -10.214031,-1.13409 -12.170834,-1.55805 -8.523062,-1.84662 -14.178132,-3.80581 -21.034375,-7.28734 -8.523431,-4.32812 -14.263577,-8.50954 -21.189826,-15.43579 -4.795564,-4.79556 -7.066858,-7.54564 -10.613026,-12.85022 -4.93561,-7.383 -9.4109393,-17.51511 -11.221435,-25.40523 -1.09175,-4.75784 -1.2856497,-5.8234 -1.8536197,-10.18646 -1.0461875,-8.03665 -0.649856,-18.74 0.9650228,-26.06146 0.208632,-0.94588 0.5637306,-2.55323 0.7891081,-3.57187 1.7066818,-7.71375 6.2873598,-18.24589 11.0501198,-25.40704 2.382425,-3.58214 4.083778,-5.86602 6.400462,-8.59192 1.031856,-1.21413 7.946407,-8.126 9.139331,-9.1358 6.209239,-5.25605 12.454607,-9.19939 19.973446,-12.6113 4.016357,-1.82255 10.502366,-4.06129 14.022917,-4.84022 1.018646,-0.22538 2.62599,-0.58051 3.571875,-0.78919 9.205839,-2.03096 22.824597,-2.02974 32.279166,0.003 6.75285,1.45179 11.7043,3.01375 16.93334,5.34173 7.24734,3.22653 12.0304,6.11178 18.51198,11.16684 3.27472,2.554 10.46985,9.74334 13.11601,13.10545 8.38981,10.6598 13.70807,22.23861 16.53141,35.99189 0.11949,0.58208 0.4837,3.0824 0.80936,5.55625 1.05281,7.99762 0.66292,18.67829 -0.95136,26.06146 -1.04366,4.77335 -1.50842,6.51883 -2.64187,9.92187 -1.68117,5.04754 -3.65813,9.46253 -6.86495,15.33093 -0.97847,1.79058 -4.85166,7.49406 -6.83783,10.06907 -2.21357,2.86985 -10.05627,10.70265 -13.1725,13.1559 -7.78919,6.13202 -16.38058,10.78982 -25.51171,13.8311 -3.40413,1.13381 -5.16423,1.60238 -9.92188,2.64144 -4.798632,1.04801 -15.208079,1.85302 -20.108332,1.55507 z m -8.801082,-55.05729 12.773097,-12.76129 12.769538,12.76129 c 7.023249,7.01871 12.968959,12.91915 13.212709,13.1121 0.39273,0.3109 1.27551,-0.48082 7.75692,-6.95677 6.49333,-6.48786 7.27409,-7.35729 6.96014,-7.75064 -0.19449,-0.24367 -6.09416,-6.1893 -13.11038,-13.2125 l -12.756779,-12.76945 12.756779,-12.7796 c 7.01622,-7.02878 12.9152,-12.97825 13.10884,-13.22105 0.31194,-0.39115 -0.48122,-1.27426 -6.96089,-7.75029 -6.48039,-6.47675 -7.36347,-7.26897 -7.75671,-6.95864 -0.24407,0.19261 -6.18928,6.09248 -13.211579,13.11083 L 84.670708,199.01752 71.895159,186.2569 c -7.02655,-7.01835 -12.974392,-12.91889 -13.21742,-13.11232 -0.391501,-0.31161 -1.275863,0.48094 -7.758006,6.95262 -6.539389,6.52884 -7.278228,7.35218 -6.959079,7.75501 0.196379,0.24788 6.099895,6.19724 13.118923,13.2208 l 12.761868,12.77012 -12.761868,12.77188 c -7.019028,7.02454 -12.922684,12.97502 -13.119241,13.22329 -0.319635,0.40374 0.415536,1.22241 6.962066,7.75287 6.47046,6.45457 7.370583,7.26096 7.760386,6.95225 0.242522,-0.19208 6.188842,-6.0918 13.214048,-13.11051 z"
         id="path23"
         inkscape:connector-curvature="0" />
    </g>
    <path
       style="fill:#a1a1a1;fill-opacity:0.63137255;stroke-width:0.75595242"
       d="m 69.732038,297.82083 c -30.818087,-4.5208 -56.158335,-25.41992 -66.6914154,-55.00302 -6.0308852,-16.93829 -5.5704863,-39.7064 1.1458059,-56.66356 4.2972807,-10.84969 9.2346135,-18.46987 17.6540565,-27.24693 15.633321,-16.29735 36.264074,-25.06919 58.960979,-25.06919 39.149216,0 71.007566,25.29817 80.721036,64.09917 1.36343,5.44635 1.64063,8.66986 1.60612,18.67762 -0.0364,10.54903 -0.29324,13.04009 -2.00933,19.48645 -2.2802,8.5653 -7.23919,19.45829 -12.27588,26.96535 -4.06886,6.06455 -15.43117,17.3108 -21.58665,21.36614 -17.0222,11.21458 -38.409293,16.19211 -57.524722,13.38797 z m -1.568135,-53.79453 13.048059,-13.03209 13.095748,13.07971 13.09574,13.07971 7.38054,-7.34464 7.38053,-7.34463 -13.09764,-13.11371 -13.097648,-13.11371 13.209548,-13.22574 13.20954,-13.22574 -7.15509,-7.18497 c -3.9353,-3.95174 -7.50575,-7.18498 -7.93432,-7.18498 -0.42857,0 -6.55486,5.78314 -13.61396,12.85142 l -12.834742,12.85142 -13.049919,-13.03393 -13.049917,-13.03393 -7.362433,7.36243 -7.362433,7.36243 13.033935,13.04992 13.033933,13.04992 -12.851421,12.83474 c -7.06828,7.0591 -12.85142,13.17228 -12.85142,13.58483 0,0.74959 13.612188,14.76361 14.340286,14.76361 0.211765,0 6.256653,-5.86444 13.433084,-13.03207 z"
       id="path39"
       inkscape:connector-curvature="0" />
  </g>
</svg>
